<svg xmlns="http://www.w3.org/2000/svg" data-name="Layer 1" viewBox="0 0 128 160" x="0px" y="0px"><defs><style>.cls-1{fill:none;stroke:#000;stroke-linecap:round;stroke-linejoin:round;stroke-width:8px;}</style></defs><title>Artboard 10</title><line class="cls-1" x1="78" y1="68" x2="50" y2="96"/><line class="cls-1" x1="50" y1="68" x2="78" y2="96"/><path class="cls-1" d="M102,40H80a8,8,0,0,1-8-8V10"/><path class="cls-1" d="M72.69,8H32a8,8,0,0,0-8,8v96a8,8,0,0,0,8,8H96a8,8,0,0,0,8-8V39.31a8,8,0,0,0-2.34-5.66L78.34,10.34A8,8,0,0,0,72.69,8Z"/><text x="0" y="143" fill="#000000" font-size="5px" font-weight="bold" font-family="'Helvetica Neue', Helvetica, Arial-Unicode, Arial, Sans-serif">Created by Juraj Sedlák</text><text x="0" y="148" fill="#000000" font-size="5px" font-weight="bold" font-family="'Helvetica Neue', Helvetica, Arial-Unicode, Arial, Sans-serif">from the Noun Project</text></svg>